HIERARCHY
ROOT Hips
{
	OFFSET -0.001795 -0.223333 0.028219
	CHANNELS 6 Xposition Yposition Zposition Zrotation Yrotation Xrotation 
	JOINT LeftUpLeg
	{
		OFFSET 0.069520 -0.091406 -0.006815
		CHANNELS 3 Zrotation Yrotation Xrotation
		JOINT LeftLeg
		{
			OFFSET 0.034277 -0.375199 -0.004496
			CHANNELS 3 Zrotation Yrotation Xrotation
			JOINT LeftFoot
			{
				OFFSET -0.013596 -0.397961 -0.043693
				CHANNELS 3 Zrotation Yrotation Xrotation
				JOINT LeftToe
				{
					OFFSET 0.026358 -0.055791 0.119288
					CHANNELS 3 Zrotation Yrotation Xrotation
					End Site
					{
						OFFSET 0.000000 0.000000 0.000000
					}
				}
			}
		}
	}
	JOINT RightUpLeg
	{
		OFFSET -0.067670 -0.090522 -0.004320
		CHANNELS 3 Zrotation Yrotation Xrotation
		JOINT RightLeg
		{
			OFFSET -0.038290 -0.382569 -0.008850
			CHANNELS 3 Zrotation Yrotation Xrotation
			JOINT RightFoot
			{
				OFFSET 0.015774 -0.398415 -0.042312
				CHANNELS 3 Zrotation Yrotation Xrotation
				JOINT RightToe
				{
					OFFSET -0.025372 -0.048144 0.123348
					CHANNELS 3 Zrotation Yrotation Xrotation
					End Site
					{
						OFFSET 0.000000 0.000000 0.000000
					}
				}
			}
		}
	}
	JOINT Spine
	{
		OFFSET -0.002533 0.108963 -0.026696
		CHANNELS 3 Zrotation Yrotation Xrotation
		JOINT Spine1
		{
			OFFSET 0.005487 0.135180 0.001092
			CHANNELS 3 Zrotation Yrotation Xrotation
			JOINT Spine2
			{
				OFFSET 0.001457 0.052922 0.025425
				CHANNELS 3 Zrotation Yrotation Xrotation
				JOINT Neck
				{
					OFFSET -0.002778 0.213870 -0.042857
					CHANNELS 3 Zrotation Yrotation Xrotation
					JOINT Head
					{
						OFFSET 0.005152 0.064970 0.051349
						CHANNELS 3 Zrotation Yrotation Xrotation
						End Site
						{
							OFFSET 0.000000 0.000000 0.000000
						}
					}
				}
				JOINT LeftShoulder
				{
					OFFSET 0.078845 0.121749 -0.034090
					CHANNELS 3 Zrotation Yrotation Xrotation
					JOINT LeftArm
					{
						OFFSET 0.090977 0.030469 -0.008868
						CHANNELS 3 Zrotation Yrotation Xrotation
						JOINT LeftForeArm
						{
							OFFSET 0.259612 -0.012772 -0.027456
							CHANNELS 3 Zrotation Yrotation Xrotation
							JOINT LeftHand
							{
								OFFSET 0.249234 0.008986 -0.001171
								CHANNELS 3 Zrotation Yrotation Xrotation
								End Site
								{
									OFFSET 0.000000 0.000000 0.000000
								}
							}
						}
					}
				}
				JOINT RightShoulder
				{
					OFFSET -0.081759 0.118833 -0.038615
					CHANNELS 3 Zrotation Yrotation Xrotation
					JOINT RightArm
					{
						OFFSET -0.096012 0.032551 -0.009143
						CHANNELS 3 Zrotation Yrotation Xrotation
						JOINT RightForeArm
						{
							OFFSET -0.253742 -0.013329 -0.021401
							CHANNELS 3 Zrotation Yrotation Xrotation
							JOINT RightHand
							{
								OFFSET -0.255298 0.007772 -0.005559
								CHANNELS 3 Zrotation Yrotation Xrotation
								End Site
								{
									OFFSET 0.000000 0.000000 0.000000
								}
							}
						}
					}
				}
			}
		}
	}
}
MOTION
Frames: 14
Frame Time: 0.050000
0.000000 0.858931 0.000000 -0.842516 14.830364 47.890633 17.506893 -1.723102 -68.004586 -8.186095 1.270876 19.478327 7.995130 22.114004 4.085369 0.000000 0.000000 0.000000 -15.060517 -8.354090 -71.307799 10.274115 -3.142030 23.527831 -9.569062 -23.823558 6.292950 0.000000 0.000000 0.000000 -12.725821 0.269765 69.203247 2.653746 0.121500 -17.456367 13.341535 12.533166 19.576159 -8.189062 5.940590 -17.925986 0.000000 0.000000 0.000000 17.495473 -40.800037 12.431884 25.275261 -23.544044 -7.323263 24.123842 -5.242106 -1.359546 0.000000 0.000000 0.000000 -28.907581 44.106183 8.266494 -25.374040 19.118698 -2.736055 -6.802271 4.230182 0.051430 0.000000 0.000000 0.000000 
0.000593 0.855022 -0.002148 -0.172768 16.075809 50.024634 18.532520 -1.851365 -72.054323 -8.545177 1.359954 18.786081 6.974978 20.532372 7.137622 0.000000 0.000000 0.000000 -15.629491 -9.834448 -72.603289 10.650135 -2.983003 20.393345 -10.467140 -24.585237 11.026941 0.000000 0.000000 0.000000 -12.161087 -0.536464 65.842887 1.626760 0.141183 -12.721298 14.417183 11.899259 17.354726 -12.315260 7.660122 -14.353277 0.000000 0.000000 0.000000 12.913146 -43.673020 14.504475 28.118322 -21.100850 -6.814041 24.507875 -4.551395 -1.095662 0.000000 0.000000 0.000000 -28.028821 45.621839 9.198643 -27.543064 16.933626 -2.345562 -8.878037 3.226490 0.099391 0.000000 0.000000 0.000000 
0.000656 0.854459 -0.003549 0.063279 15.249891 49.945884 17.652547 -1.974128 -72.539538 -9.275422 1.596502 19.614738 7.934593 22.382091 3.442030 0.000000 0.000000 0.000000 -17.028628 -10.684683 -73.724642 11.034818 -3.347772 22.935240 -10.092702 -24.270298 9.885738 0.000000 0.000000 0.000000 -11.639120 -0.741912 68.127562 -0.611493 0.887628 -16.280030 16.039386 10.094946 18.357100 -9.787467 6.527042 -15.424499 0.000000 0.000000 0.000000 16.735416 -41.679867 13.012595 25.038025 -23.408931 -6.873800 26.142740 -3.352649 -1.017243 0.000000 0.000000 0.000000 -31.265684 44.407945 7.318329 -25.868700 18.266583 -2.674972 -9.105300 3.106023 0.093648 0.000000 0.000000 0.000000 
-0.000592 0.855882 -0.002857 0.023317 15.417734 52.091196 18.183680 -1.689375 -75.960955 -8.928538 1.561636 19.715394 7.316536 21.471190 5.629626 0.000000 0.000000 0.000000 -16.821887 -10.886310 -75.203301 10.745044 -3.048786 21.151703 -9.935316 -23.764453 12.237540 0.000000 0.000000 0.000000 -12.142556 -0.360858 68.301541 -0.795204 0.974022 -16.831319 16.848209 11.533248 18.572282 -9.611951 6.367600 -13.516511 0.000000 0.000000 0.000000 18.570276 -40.998596 12.553108 25.356649 -21.208333 -6.297856 29.399862 -2.870669 -1.217773 0.000000 0.000000 0.000000 -31.667752 44.635421 7.446330 -28.004835 16.127412 -2.053252 -8.066312 3.074894 0.107545 0.000000 0.000000 0.000000 
-0.003068 0.855782 -0.000433 0.743345 15.543538 52.459395 17.341306 -2.322981 -75.424279 -9.598723 1.668384 18.694159 7.094373 21.021470 4.781072 0.000000 0.000000 0.000000 -17.883207 -11.923570 -75.471254 10.422971 -2.990425 21.480259 -9.594647 -22.765520 14.276047 0.000000 0.000000 0.000000 -11.680904 -0.922434 68.764591 -2.085347 1.304905 -18.337814 16.954770 9.514871 19.713960 -9.528264 6.364192 -17.004689 0.000000 0.000000 0.000000 22.163013 -39.076585 11.195607 23.676315 -20.818401 -5.578173 29.865836 -2.072935 -1.149843 0.000000 0.000000 0.000000 -33.792777 43.826330 6.253625 -27.370969 16.831548 -2.311145 -9.385501 2.622115 0.126892 0.000000 0.000000 0.000000 
-0.006972 0.856998 0.003745 1.081978 16.335652 52.852192 17.475824 -2.636001 -75.731268 -9.578165 1.655238 18.900355 6.765206 20.457865 6.440101 0.000000 0.000000 0.000000 -17.235659 -11.770527 -75.085381 8.853671 -2.421498 20.757347 -9.667786 -22.681884 14.756216 0.000000 0.000000 0.000000 -12.192665 -0.838636 68.733415 -1.896877 1.289191 -18.555144 17.536750 10.387358 19.903560 -8.990064 6.165200 -17.029437 0.000000 0.000000 0.000000 23.656430 -38.737368 10.855508 23.934545 -20.322696 -5.563060 29.473698 -1.356740 -1.060658 0.000000 0.000000 0.000000 -33.078726 43.903850 6.565480 -27.454037 17.040988 -2.288714 -8.406094 2.761869 0.113701 0.000000 0.000000 0.000000 
-0.011791 0.856974 0.008580 1.570284 17.078286 52.833542 17.458917 -3.017849 -75.374942 -10.155514 1.731929 18.040526 7.272100 21.817020 6.967157 0.000000 0.000000 0.000000 -17.231649 -11.851342 -73.877744 8.433897 -2.319139 20.632671 -9.682291 -22.689498 13.595982 0.000000 0.000000 0.000000 -12.419530 -1.076652 69.174944 -1.591966 1.249894 -19.147551 17.620581 10.686555 20.276246 -9.044798 6.218508 -17.344517 0.000000 0.000000 0.000000 23.846965 -38.498567 10.806695 23.932382 -19.607199 -5.377044 30.438870 0.353491 -0.727057 0.000000 0.000000 0.000000 -33.439000 43.649678 6.349181 -27.053687 18.345545 -2.582556 -9.362917 1.633138 0.177999 0.000000 0.000000 0.000000 
-0.016576 0.857025 0.012779 2.305432 17.968197 53.668122 17.252601 -3.630706 -75.891588 -10.241372 1.714749 17.871492 7.005701 21.626378 7.457066 0.000000 0.000000 0.000000 -17.094837 -12.314759 -73.928492 7.972662 -2.282804 21.552863 -9.821131 -23.006701 12.443668 0.000000 0.000000 0.000000 -12.470798 -1.530297 69.102243 -1.577827 1.249574 -18.873209 17.901099 11.032255 19.689913 -8.277995 5.829560 -17.669532 0.000000 0.000000 0.000000 24.121161 -38.043419 10.771222 23.896839 -19.894391 -5.519322 31.251481 1.504475 -0.487159 0.000000 0.000000 0.000000 -33.461471 43.804426 6.520316 -26.967029 18.186002 -2.514154 -9.279650 1.248765 0.197703 0.000000 0.000000 0.000000 
-0.020528 0.856304 0.015936 3.307473 18.628873 54.484423 16.390254 -4.629364 -76.577796 -9.701168 1.569072 18.431454 6.637520 21.110194 7.419933 0.000000 0.000000 0.000000 -17.258551 -13.109012 -74.356498 7.797206 -2.314808 22.354036 -9.429424 -22.298157 11.343804 0.000000 0.000000 0.000000 -11.993256 -2.343316 68.939195 -2.002491 1.343022 -18.716119 17.868385 11.074419 19.350145 -7.401142 5.382034 -17.155905 0.000000 0.000000 0.000000 23.613768 -38.249787 11.037419 24.883165 -19.596198 -5.674192 32.576968 2.549982 -0.196401 0.000000 0.000000 0.000000 -33.641230 43.114173 6.409603 -27.283264 17.957089 -2.442954 -9.009528 0.802564 0.218151 0.000000 0.000000 0.000000 
-0.023527 0.855033 0.017913 3.819440 18.837153 55.095992 15.568142 -5.350230 -77.273398 -9.357546 1.485192 18.840630 6.438226 20.802027 7.501642 0.000000 0.000000 0.000000 -17.249443 -13.669183 -75.422454 8.155633 -2.631882 24.487695 -9.161618 -21.952938 10.205476 0.000000 0.000000 0.000000 -11.589825 -2.820428 68.692712 -2.503027 1.445275 -18.339822 17.713532 11.260486 18.544124 -6.743197 5.003157 -16.308878 0.000000 0.000000 0.000000 22.970011 -38.168417 11.246204 25.350237 -19.963274 -5.929913 33.598921 3.626516 0.141112 0.000000 0.000000 0.000000 -33.595733 43.316247 6.660661 -27.533832 16.573365 -2.081238 -9.191926 0.384310 0.254396 0.000000 0.000000 0.000000 
-0.026018 0.852867 0.018855 4.380160 18.884967 55.693463 15.005700 -5.836155 -77.605073 -9.150258 1.418441 18.772634 6.159137 20.196400 6.418604 0.000000 0.000000 0.000000 -17.395002 -14.238118 -76.324178 8.514309 -2.905923 25.977913 -8.972709 -21.804160 8.809161 0.000000 0.000000 0.000000 -10.973729 -3.529425 69.058695 -3.083974 1.567972 -18.418367 17.568616 11.752373 17.656710 -5.435140 4.348103 -16.383545 0.000000 0.000000 0.000000 22.391527 -38.746888 11.575790 25.950394 -20.552752 -6.320769 34.664494 3.124321 0.075169 0.000000 0.000000 0.000000 -34.116901 42.676155 6.546827 -27.973632 15.634502 -1.790076 -8.776747 0.018746 0.267878 0.000000 0.000000 0.000000 
-0.028444 0.850963 0.018986 4.582305 18.539727 56.172521 14.919425 -5.816464 -78.287717 -9.189024 1.468721 19.466575 5.836262 19.325187 5.540585 0.000000 0.000000 0.000000 -17.344907 -14.556780 -77.821572 9.199882 -3.311213 27.686607 -8.852756 -21.812081 8.002984 0.000000 0.000000 0.000000 -10.596222 -3.819707 69.455794 -3.774451 1.712461 -18.638294 17.509687 11.918265 17.181153 -4.919613 4.055979 -16.334697 0.000000 0.000000 0.000000 22.527476 -38.563023 11.597763 26.301444 -21.734208 -6.868249 35.202055 3.460770 0.231011 0.000000 0.000000 0.000000 -33.936163 42.106424 6.665281 -28.758828 14.845819 -1.571936 -9.153231 -0.166042 0.299212 0.000000 0.000000 0.000000 
-0.031149 0.849329 0.018747 4.610057 18.254834 57.047195 14.887653 -5.772299 -78.999589 -8.787557 1.383217 19.543229 5.703477 19.148820 5.499144 0.000000 0.000000 0.000000 -17.171187 -14.930188 -79.732654 10.172153 -3.773731 28.795114 -9.386762 -23.097140 8.031780 0.000000 0.000000 0.000000 -9.966162 -4.192574 68.888422 -3.803477 1.697582 -18.546456 17.370150 12.212097 16.568174 -4.264333 3.603942 -15.009885 0.000000 0.000000 0.000000 21.252507 -39.289729 12.133698 26.601612 -22.717961 -7.372943 34.840760 2.714458 0.114608 0.000000 0.000000 0.000000 -32.614393 42.953758 7.595879 -30.463613 13.878950 -1.335671 -9.656610 -1.466134 0.398033 0.000000 0.000000 0.000000 
-0.034185 0.847908 0.018487 4.691429 17.869485 57.886053 14.884979 -5.634564 -79.606453 -9.096430 1.491185 19.716914 5.788809 19.252121 4.485416 0.000000 0.000000 0.000000 -16.951592 -15.007967 -81.212864 10.625853 -3.997241 29.566230 -9.649918 -23.856544 7.929859 0.000000 0.000000 0.000000 -9.860386 -4.075164 68.757492 -3.807137 1.693288 -18.594378 17.763267 12.041087 16.166658 -4.525692 3.562091 -13.699035 0.000000 0.000000 0.000000 20.395774 -39.959522 12.633362 26.847252 -22.891066 -7.554615 35.020945 3.080453 0.311413 0.000000 0.000000 0.000000 -32.022665 43.018797 7.966171 -31.624292 14.205332 -1.469272 -11.502512 -1.699000 0.519029 0.000000 0.000000 0.000000 
